<?xml version="1.0" encoding="UTF-8"?>
<!DOCTYPE svg PUBLIC "-//W3C//DTD SVG 1.1//EN" "http://www.w3.org/Graphics/SVG/1.1/DTD/svg11.dtd">
<!-- Creator: CorelDRAW X7 -->
<svg xmlns="http://www.w3.org/2000/svg" xml:space="preserve" width="512px" height="237px" version="1.1" style="shape-rendering:geometricPrecision; text-rendering:geometricPrecision; image-rendering:optimizeQuality; fill-rule:evenodd; clip-rule:evenodd"
viewBox="0 0 594 275"
 xmlns:xlink="http://www.w3.org/1999/xlink">
 <defs>
  <style type="text/css">
   <![CDATA[
    .fil1 {fill:#007F82}
    .fil3 {fill:#008083}
    .fil7 {fill:#037F81}
    .fil6 {fill:#FA6606}
    .fil5 {fill:#FBFCFA}
    .fil9 {fill:#FDB988}
    .fil8 {fill:#FDCB90}
    .fil2 {fill:#FE6602}
    .fil0 {fill:#FEFDFD}
    .fil4 {fill:#FF6501}
   ]]>
  </style>
 </defs>
 <g id="Capa_x0020_1">
  <metadata id="CorelCorpID_0Corel-Layer"/>
  <g id="_1050396880">
   <path class="fil0" d="M10 96c-1,3 -1,87 -1,98 0,10 6,8 20,8 11,0 150,1 153,0 3,0 3,-2 4,-4l0 -37 -3 2c0,0 0,0 0,0 0,0 0,1 -2,1 -1,-1 -1,1 -1,0 0,0 0,0 0,0 0,0 0,0 0,-1l-1 0c0,0 0,0 0,-1 -1,1 -1,0 -1,1l-3 -3c2,-1 0,2 1,0 1,-2 0,0 1,-2 0,0 -2,1 -2,-1 0,0 0,0 0,0 -1,1 -1,0 -1,1 -1,0 -2,0 -2,-1 0,-1 1,0 -1,0 -2,-1 -7,0 -10,0 -3,0 -6,-1 -9,-1 -2,2 -3,6 -5,8 -2,-1 -19,-11 -23,-12l1 -2c-1,0 -1,1 -1,-1 0,-1 0,1 1,-1 0,-2 0,-1 0,-2 0,0 0,0 0,-1 -1,0 -1,0 -1,0 0,0 0,0 0,0 0,0 1,0 1,0l0 0c0,0 0,0 0,0 0,-1 0,-1 0,-1 0,0 2,0 -1,0 2,-1 0,0 1,-1 -2,0 -1,1 -1,-1 1,-1 0,-1 0,-2 0,0 -1,0 -2,1 0,-1 -1,0 -2,-1 -2,-3 0,-2 0,-2l0 -3c0,-1 -1,0 -1,-2 0,0 0,0 1,0 0,0 0,0 0,0l-1 -1c-1,0 -1,-2 -2,-3l-2 0c-1,-2 0,0 -1,-1 0,-1 -1,-2 0,-3 1,-1 1,-1 1,-2 -1,-1 0,0 -2,0 -2,-1 -4,0 -7,0l0 -1c1,-4 -1,-21 0,-26l9 -1 1 -1c0,-1 0,-2 0,-2l-97 0c-5,0 -8,0 -9,4z"/>
   <path class="fil1" d="M136 252c-1,-4 0,-5 4,-5l20 0c2,0 4,0 5,0 3,0 3,0 4,1 1,5 -1,4 -5,4 -6,0 -25,1 -28,0zm1 -141c-1,-7 2,-15 6,-19 15,-18 41,-8 44,12 2,15 -9,27 -22,28 -15,2 -26,-8 -28,-21zm-127 -15c1,-4 4,-4 9,-4l97 0c0,0 0,1 0,2l-1 1 -9 1c-1,5 1,22 0,26 3,0 7,0 10,0 1,3 2,5 5,11 4,6 5,7 8,10l-4 7 -1 2c4,1 21,11 23,12 2,-2 3,-6 5,-8 3,0 6,1 9,1 3,0 8,-1 10,0l6 -2 4 6c1,2 0,2 2,2 0,0 0,0 0,0l3 -2 0 37c-1,2 -1,4 -4,4 -3,1 -142,0 -153,0 -14,0 -20,2 -20,-8 0,-11 0,-95 1,-98zm183 109c0,-1 1,-1 2,-4 1,-4 0,-41 0,-46 2,-1 1,0 2,-1 -2,0 -1,0 -3,0l1 -1c0,0 1,0 1,0 1,-3 0,-1 0,-3 0,-1 1,1 0,-3l2 0c1,-2 -1,-1 1,-1l0 2 2 0c0,0 0,0 0,-1 -1,-1 1,2 0,0 -1,-1 -1,0 -1,-3 0,0 1,0 0,-1 -1,-2 -1,-1 2,-4 0,-1 1,-1 1,-2 0,0 1,-1 1,-1 1,-1 1,-1 1,-2 0,-1 1,-1 1,-2l5 -10c0,-2 -1,-2 1,-2 1,0 2,0 3,0 2,0 4,0 6,0 0,-3 -1,-22 -1,-26l-9 0c-2,-7 -7,-15 -11,-19 -1,-1 -1,-1 -1,-1l-1 -2 3 -6c1,-1 1,-2 0,-3l0 0c-1,0 -1,0 -2,-1 -1,0 -1,-1 -3,-1l-7 -4c-2,-1 -8,-5 -10,-6l-4 9c-1,0 -2,-1 -3,-1 -6,-1 -10,-1 -16,0l-6 1c-1,-1 -2,-2 -3,-4l-2 -4c-2,0 -11,7 -14,8 -1,1 -1,1 -2,2 -1,0 -2,1 -3,1 -1,1 -2,2 -3,2 0,2 3,7 4,9 0,1 -1,1 -2,2l-3 5c-1,1 -1,1 -3,2 -4,0 -11,-1 -16,-1l-86 0c-2,0 -5,1 -7,2 -1,0 -2,0 -3,1 -1,0 -2,1 -2,2 -6,7 -5,11 -5,22l0 82c0,9 1,14 8,19 5,2 19,1 25,1 19,0 37,0 55,0l0 26c-1,1 -3,1 -5,1 -17,0 -36,0 -54,0 -5,0 -15,-2 -17,6 -2,4 -3,16 3,20 3,2 5,2 10,2l145 0c5,0 9,0 12,-3 2,-3 2,-5 3,-7 0,-1 0,-10 -1,-11 0,-2 -1,-3 -2,-4 -3,-4 -11,-3 -15,-3l-49 0c-2,0 -3,0 -5,0l-5 0 0 -27c23,0 45,0 68,0 6,0 10,1 14,-3l1 -1c1,-1 0,-1 2,-2z"/>
   <path class="fil2" d="M232 52c1,-1 5,-2 7,-1 15,0 18,21 4,26 -4,2 -9,1 -13,-2 0,0 0,0 -1,0 -1,-1 0,-1 0,-1 -2,-1 -3,-3 -4,-5 -1,-2 -1,-4 0,-7 0,-4 3,-8 7,-10zm-1 -15l0 1c-2,1 -6,1 -9,5 -1,0 -1,0 -1,0 0,0 0,0 -1,1 -2,1 -2,0 -4,-1 -1,-1 -1,0 -2,-1l-4 7c0,1 -2,5 -3,6 1,0 2,1 2,1l3 1c0,1 -1,4 -1,9 0,3 1,3 1,5 0,1 -5,2 -5,3 0,1 3,5 4,6 0,1 0,1 0,2l2 3c1,0 1,0 1,1 1,0 3,-1 5,-2 0,0 1,0 1,1l9 5c1,0 2,1 2,1l0 5 14 0 0 -5 5 -2c1,0 0,0 1,-1 4,-1 4,-3 7,-4 2,1 3,2 4,2 1,-1 1,-2 2,-3l3 -5c0,0 0,0 0,-1 2,-4 3,-3 -2,-6 0,-2 1,-3 1,-7 0,-3 -1,-5 -1,-7l2 -1c1,-1 2,-1 2,-1l-6 -12c-1,0 0,1 -1,-1 -1,1 0,0 -1,1 -2,0 -2,2 -3,2 -1,0 -2,-2 -3,-2l-3 -2c0,0 0,0 0,0 -3,-2 -6,-3 -7,-3l0 -5 -14 0 0 4z"/>
   <path class="fil1" d="M212 175c0,6 0,7 4,13l4 3c1,1 2,1 2,2 1,0 2,0 3,1 1,0 2,1 3,1 5,1 14,3 18,5 6,4 1,14 -7,14 -4,0 -8,1 -11,-2 -2,-1 -2,-1 -3,-3 -1,-1 -1,-1 -1,-2 -1,-1 -2,-3 -2,-5l-12 1c0,4 2,9 3,12 2,3 5,5 8,7 1,0 1,0 2,1 4,2 11,2 16,2 6,0 13,-2 18,-7 5,-5 6,-17 2,-22l-1 -2c-2,-3 -4,-4 -7,-5 -1,-1 -2,-1 -4,-2l-3 -1c-1,0 -2,-1 -2,-1 -1,0 -2,0 -3,0 0,0 -1,0 -2,-1l-7 -2c-1,0 -1,-1 -2,-1 -1,0 -2,-1 -3,-2 -1,-1 -1,-3 -1,-4 1,-5 11,-6 16,-5l4 3c0,0 1,0 1,0 0,1 0,1 1,2 0,1 1,2 1,4l7 0c2,0 3,-1 6,-1 0,-4 -2,-9 -5,-12 -3,-3 -5,-4 -9,-5 -8,-3 -20,-2 -27,2 0,1 0,1 -1,1l-3 4c-1,1 -3,5 -3,7z"/>
   <path class="fil0" d="M159 96c8,-3 14,3 15,9 2,7 -3,13 -9,15 -15,3 -22,-19 -6,-24zm-22 15c2,13 13,23 28,21 13,-1 24,-13 22,-28 -3,-20 -29,-30 -44,-12 -4,4 -7,12 -6,19z"/>
   <path class="fil1" d="M443 187c0,0 9,-4 10,6 0,5 0,25 0,31l12 0c0,-7 -1,-26 1,-31 1,-5 5,-7 9,-7 5,1 6,5 6,11l0 27 12 0 0 -28c0,-2 0,-8 -1,-10 0,-1 -1,-3 -2,-4 0,0 0,0 -1,-1l-2 -2c-2,-1 -3,-1 -5,-2 -2,0 -4,0 -6,0 -6,1 -10,6 -12,7 -2,-1 -3,-7 -14,-7 -3,0 -5,1 -8,2 -1,1 0,0 -1,1l-2 1c-1,1 -1,2 -2,3 -1,-1 -1,-1 -1,-3 0,-1 0,-2 0,-3l-11 0 0 46 12 0c0,-6 0,-27 1,-31 1,-3 2,-5 5,-6z"/>
   <path class="fil1" d="M581 211c0,2 0,3 -2,4 -2,1 -7,2 -10,1 0,0 -1,0 -1,0 -1,-1 -2,-1 -2,-2 -2,-1 -3,-3 -3,-4 0,-1 -1,-1 -2,-1l-7 1c-1,1 -2,1 -3,1 0,2 3,7 4,8l2 1c6,5 16,6 23,4 5,-1 9,-4 11,-7 4,-5 4,-13 -1,-16 -3,-2 -6,-3 -9,-4l-12 -4c-1,0 -1,0 -2,0 -4,-2 -3,-2 -3,-5 1,-1 2,-2 4,-2l5 0c5,0 6,2 8,5 1,0 3,0 4,-1 1,0 1,0 3,0 0,0 3,-1 4,-1 0,-1 -2,-5 -3,-6 0,0 -1,0 -1,-1 -5,-6 -21,-6 -26,-4 -2,1 -3,1 -4,2 0,0 -1,1 -1,1 -6,5 -7,16 3,21 6,3 19,5 21,7 0,1 0,1 0,2z"/>
   <path class="fil1" d="M515 213c0,-2 -3,-5 4,-8 1,0 2,-1 3,-1 1,0 2,0 3,-1 1,0 4,0 5,-1 1,1 1,0 1,4 0,2 -1,2 -1,4 -1,5 -8,8 -13,5 -2,-1 -1,-1 -2,-2zm17 6c0,2 1,4 1,5l12 0c-1,-3 -2,-7 -2,-10 0,-2 -1,-3 -1,-6 0,-11 4,-26 -8,-30 -1,0 -1,0 -2,0 -3,-1 -12,-1 -15,-1 -3,1 -6,2 -8,4 0,0 0,0 0,0 -3,2 -5,6 -6,9l8 1c1,0 2,1 3,1 2,-8 13,-6 15,-4 1,1 2,4 2,6 -1,0 -1,0 -3,1l-7 2c-1,0 -2,0 -3,0 -4,2 -9,2 -12,6 -1,0 -1,0 -1,0 0,0 0,0 0,0l0 0c0,0 0,0 0,0l-2 5c-2,4 -1,9 2,12 0,0 0,0 1,1l4 3c0,0 0,0 0,0 2,0 1,0 2,1 2,0 8,0 11,-1 6,-2 8,-4 8,-5l1 0z"/>
   <path class="fil1" d="M347 169l0 9 -5 0 0 9 5 0 0 23c0,7 1,14 9,15 7,1 11,-2 13,-2l-1 -6c0,-2 0,-1 0,-3 -2,0 -2,1 -7,1 -1,-1 -2,-1 -2,-5l0 -23 9 0 0 -9 -9 0 0 -16c-1,0 0,0 -3,2l-9 5z"/>
   <path class="fil1" d="M211 11c5,-1 9,3 10,7 1,5 -2,9 -7,10 -5,2 -9,-2 -10,-6 -1,-6 3,-10 7,-11zm-13 -6c0,2 3,1 1,4 -1,1 -1,1 -1,2l-1 2c-1,1 -1,1 -1,2 -6,0 -4,0 -4,6 0,4 0,4 4,4 1,2 0,1 3,6 1,0 1,1 1,1 0,1 -1,2 -1,3 1,1 3,2 5,3 0,0 0,0 1,0 0,1 0,1 0,1 2,1 2,1 3,-2 3,1 7,0 9,0 2,3 2,2 4,1 1,-1 1,0 2,-1 1,0 1,-1 2,-1l2 -1c-1,-5 -3,0 1,-7l2 -4c1,0 1,0 3,0l0 -9 -4 0c0,-2 -1,-3 -1,-4 -1,-1 -2,-3 -3,-3 0,-2 1,-2 1,-4l-7 -4c-1,0 -2,2 -2,3 -1,0 -4,-1 -5,-1 0,0 -1,0 -2,1 -1,0 -1,0 -3,0 0,-1 0,-2 -1,-3l-3 2c-1,0 -5,2 -5,3z"/>
   <path class="fil1" d="M392 215c-5,-1 -7,-6 -7,-10l31 0c0,-6 0,-10 -2,-15 -1,-1 -1,-3 -2,-4l-3 -3c0,0 0,0 0,-1l-5 -3c-4,-2 -11,-3 -16,-1 -7,2 -7,4 -9,5 0,1 -1,1 -1,2 -2,1 -3,5 -4,7 0,1 0,0 0,2 0,1 -1,2 -1,3 -1,5 0,13 3,17 2,4 3,5 6,8 2,0 1,1 4,1 3,2 8,2 11,2l5 -1c2,0 3,-1 5,-2 1,0 0,0 2,-1l1 -1c1,-1 1,-1 2,-2 1,-1 0,-1 1,-2 1,-1 2,-3 2,-5l-12 -2c-1,2 -1,3 -2,5 -3,2 -8,2 -9,1zm-6 -18c-1,-1 0,-2 0,-3 0,-1 0,-1 1,-3 1,-6 17,-9 17,6l-18 0z"/>
   <path class="fil2" d="M299 143c-10,0 -9,-9 -9,-15 0,-4 2,-8 6,-9 3,-1 2,-1 4,0 2,0 1,0 2,1 4,2 5,6 5,10 0,5 -1,10 -6,12 -1,0 -1,1 -2,1zm-2 4c3,0 6,-1 8,-2 1,-1 0,0 1,-1 1,-1 0,0 1,-1 0,4 0,7 -1,9 -3,5 -14,5 -15,1 -1,-2 1,-3 -6,-3 0,2 0,5 2,6l1 2c1,0 1,0 2,1 1,0 0,0 1,0 3,1 10,2 12,1 2,-1 3,-1 5,-3 2,-2 -1,1 1,-1 0,0 0,0 0,0 3,-3 3,-7 3,-11l0 -30c-1,-1 0,0 -2,0 -1,0 -2,0 -3,0 1,1 1,2 0,3 0,0 -1,0 -1,-1 -1,-1 -2,-2 -4,-2 -3,-1 -2,-1 -7,-1 -2,0 -5,2 -6,3l-2 3c-3,4 -4,10 -3,15 0,4 4,10 10,12 0,0 3,0 3,0z"/>
   <polygon class="fil1" points="272,224 285,224 285,179 272,179 "/>
   <path class="fil1" d="M315 206c1,1 7,2 8,3 1,2 1,4 0,5 -1,1 -2,1 -4,2 -3,1 -8,1 -11,-2l0 0c-2,-2 -2,-3 -3,-5 -1,0 -11,2 -12,2 0,2 2,6 4,7 3,4 7,6 12,7 3,0 10,0 13,-1 4,-1 6,-1 9,-4 0,0 0,0 0,0 1,-1 1,-1 2,-2 2,-3 4,-7 2,-13 -1,-4 -4,-4 -4,-6 -3,0 -4,-1 -7,-2 -2,-1 -4,-1 -6,-2l-4 -1c-1,0 -1,0 -3,-1 -3,0 -5,-1 -5,-3 0,-6 11,-5 14,-3 2,1 2,3 3,4 3,0 7,-2 11,-2 0,-2 -1,-3 -2,-5 -2,-3 -5,-5 -8,-6 -1,0 -2,0 -3,-1 0,0 -1,0 -2,0 -1,0 0,0 -1,0 -18,-1 -20,6 -22,7 0,1 0,0 0,1 0,0 0,1 0,1 -1,1 -1,1 -1,2 -1,5 0,9 4,12 3,3 14,6 16,6z"/>
   <path class="fil2" d="M491 143l-4 0c-2,0 0,0 -1,0 -5,-2 -4,-7 -1,-8 1,-1 3,-1 4,-2 1,0 1,0 3,0l5 -1c1,-1 1,-1 2,-1l0 5c0,1 -1,2 -1,4 -1,1 -5,3 -7,3zm-13 -19c2,0 3,0 5,1 0,-2 1,-4 2,-5 3,-2 7,-2 10,-1 5,1 4,5 4,8 -6,1 -7,1 -12,2l-4 1c-6,2 -8,9 -5,13l3 3c3,2 9,2 13,1l4 -3c1,-1 0,1 1,-1l1 0 1 4 5 0c0,-2 -1,-2 -1,-7 0,-5 0,-14 0,-18 -1,-3 -2,-5 -5,-7 -3,-1 -6,-1 -9,-1 -4,0 -1,0 -4,1 -1,0 -1,0 -2,0 0,0 -2,1 -2,1 -2,1 -3,2 -4,4 -1,2 -1,3 -1,4z"/>
   <path class="fil2" d="M538 121l1 -1 0 0c0,0 0,0 0,0 3,-2 6,-2 9,-1 1,1 0,0 1,1l1 0 2 3 1 5c-4,-1 -13,-1 -18,-1 0,-2 1,-3 2,-5 1,-1 0,0 1,-1zm-9 10l1 6c1,3 2,4 3,6l1 1c1,1 4,3 6,3 4,1 8,1 12,0l3 -3c0,0 0,0 0,0 0,0 1,0 1,0 6,-8 2,-7 -3,-7 0,3 -4,6 -6,6l-5 0c-1,0 0,0 -1,0 -3,-1 -4,-4 -5,-6 -1,-1 -1,0 -1,-1 0,-1 0,-2 0,-2 0,-1 0,-2 1,-2l23 0c0,-5 0,-9 -3,-13l-1 -1c-1,0 -1,0 -1,0l0 -1c-2,-1 -5,-3 -7,-3 -4,0 -6,0 -10,2l-2 1c-2,2 -4,4 -5,7 0,2 -1,3 -1,7z"/>
   <path class="fil3" d="M278 245l0 -3 -5 0 0 23c0,1 2,1 6,1 0,-4 -1,-16 1,-18 1,-2 5,-3 6,-1 2,1 1,12 1,15 0,4 -1,4 6,4 0,-6 -1,-17 2,-19 2,-1 4,-2 6,0 2,2 0,14 1,19 3,0 6,0 6,-1l0 -16c0,-9 -8,-9 -12,-7 -2,1 -2,2 -3,3 -1,-2 -3,-3 -5,-4 -6,-1 -7,3 -10,4z"/>
   <path class="fil2" d="M343 128l-17 0c-2,0 -1,-2 0,-3 0,-2 1,-3 2,-4 3,-3 8,-4 12,0 2,1 3,4 3,7zm-24 3c0,4 1,8 3,11l0 0c6,7 15,7 21,4l1 -1c0,0 0,0 0,0l3 -3 2 -5c-2,0 -4,0 -6,0 0,1 -1,3 -2,4l-3 2c-1,0 0,0 -1,0 -4,0 -7,1 -10,-3 -2,-3 -2,-5 -2,-8l24 0c0,-2 0,-6 -1,-7 0,-1 0,-2 -1,-3 0,-1 -1,-2 -1,-3l-3 -2c-3,-3 -9,-4 -13,-2l-3 0c0,1 0,1 0,1 -3,1 -3,2 -5,4 -2,2 -2,4 -3,7 0,2 0,2 0,4z"/>
   <path class="fil2" d="M419 118c1,0 4,2 6,3 1,1 2,4 2,7l-18 0c0,-6 4,-10 10,-10zm0 30c4,0 7,-1 10,-4l2 -2c1,-1 1,-3 2,-4 -2,-1 -3,-1 -5,-1 -4,5 -3,6 -11,6 -1,0 -3,0 -3,-1 -3,-2 -5,-5 -5,-10l23 0c2,0 1,-2 1,-4 0,-7 -6,-13 -12,-14 -4,0 -10,0 -14,4 0,1 0,1 0,1 0,0 0,0 0,0 -3,3 -4,9 -4,13 1,3 1,7 3,10 2,2 4,4 7,5 0,0 1,0 1,0l5 1z"/>
   <path class="fil2" d="M159 96c-16,5 -9,27 6,24 6,-2 11,-8 9,-15 -1,-6 -7,-12 -15,-9z"/>
   <path class="fil1" d="M225 266c4,0 7,-1 9,-3 2,-2 4,-5 5,-8 -2,0 -2,0 -3,0 -1,-1 -2,-1 -4,-1 -1,2 -1,7 -8,7 -8,0 -9,-16 -5,-21 0,0 1,0 1,-1 3,-2 6,-2 9,-1 1,1 3,3 3,5 2,0 5,-1 7,-2 -1,0 -1,-1 -1,-1 0,-1 -1,-1 -1,-2 -1,-2 -1,-2 -3,-3l-2 -2c0,0 0,0 -1,0 -4,-2 -12,-1 -15,2 -3,2 -6,7 -6,10 0,1 0,1 0,2 -1,4 0,2 0,6 0,5 4,10 10,12 2,1 2,1 5,1z"/>
   <path class="fil2" d="M361 117l0 -2 -5 0 0 31c0,2 2,1 5,1 0,-6 0,-18 1,-23 1,-2 2,-3 3,-4l3 -1c2,-1 4,-1 7,1 0,0 0,1 0,1 2,2 2,3 2,6 0,4 0,19 0,20 4,0 5,1 5,-1 0,-2 1,-23 0,-25 0,-1 -1,-1 -1,-2 -1,-2 -3,-3 -5,-4 -4,-2 -11,-1 -13,2 -3,4 -2,0 -2,0z"/>
   <path class="fil2" d="M571 119l0 -4 -5 0 0 31c0,2 2,1 5,1 1,-1 0,-14 0,-17 0,-2 1,-6 2,-7 1,-2 1,-3 3,-4l1 0c5,-1 7,0 8,1l1 1c2,3 1,22 1,26l5 0 0 -21c0,-7 -1,-10 -6,-11 -2,-1 -3,-1 -5,-1 -7,0 -8,4 -10,5z"/>
   <path class="fil2" d="M255 119l0 -4c0,0 -1,0 -1,0l-3 0 0 32 5 0c0,-7 -1,-16 1,-23 1,-6 12,-7 14,-2 1,2 1,17 1,22 0,4 -1,3 5,3l0 -24c0,-2 -1,-5 -3,-6 -3,-3 -6,-3 -10,-3 -1,0 -3,1 -4,1 -2,1 -2,2 -3,3 -1,1 0,0 -2,1z"/>
   <path class="fil1" d="M462 246c9,0 8,15 1,15 -9,0 -7,-15 -1,-15zm-12 7c0,4 1,7 4,10 8,8 25,1 20,-15 -3,-7 -14,-9 -19,-4 -3,2 -5,5 -5,9z"/>
   <path class="fil1" d="M257 261l-2 0c-6,0 -7,-12 -2,-14 5,-2 8,1 8,6 0,3 0,5 -2,7 -1,0 -2,1 -2,1zm-14 -8c0,19 25,16 25,1 0,-4 -1,-6 -4,-9 -6,-7 -17,-4 -20,3 0,1 -1,3 -1,5z"/>
   <path class="fil1" d="M400 254c0,3 0,5 -2,7 -5,3 -10,-3 -4,-5 2,-1 4,-2 6,-2zm-14 -7l0 1c1,0 4,1 5,1 1,-2 2,-3 5,-3 3,0 4,1 4,3 0,1 -1,1 -3,2 -5,1 -12,2 -12,8 0,3 2,5 4,6 6,3 10,-1 12,-2 0,2 0,1 1,3 1,0 5,-1 5,0 0,-2 0,-2 0,-4 -2,-5 2,-16 -3,-19 -3,-2 -11,-2 -14,-1 -2,1 -4,4 -4,5z"/>
   <path class="fil1" d="M517 262c-1,0 -3,-1 -4,-2 -1,-4 4,-5 7,-6 3,0 1,5 1,6 -1,1 -2,2 -4,2zm-9 -14c1,0 3,1 5,1 1,-1 2,-4 5,-3 3,0 4,0 4,4 -5,1 -13,2 -15,6 0,1 0,1 0,2 -2,8 8,10 14,6 1,-1 0,-1 2,-1 0,2 0,2 1,3 7,0 5,0 4,-3 0,-1 0,-3 0,-4 -1,-9 4,-18 -10,-18 -3,0 -6,0 -8,2 0,0 0,0 0,0l-1 2c-1,1 -1,1 -1,3z"/>
   <path class="fil1" d="M557 246c3,0 5,2 5,6l-10 0c0,-3 2,-6 5,-6zm-11 7c0,15 13,15 18,11 2,-1 3,-3 3,-5l-6 -1c-1,6 -9,4 -9,-3l16 0c0,-4 0,-7 -3,-10 -3,-4 -9,-5 -12,-3l-1 0c-4,2 -6,7 -6,11z"/>
   <path class="fil1" d="M363 242l-5 0c0,4 1,15 -1,18 -3,3 -6,2 -7,-1 -1,-2 -1,-14 -1,-17l-6 0c0,4 -1,17 1,21 2,3 7,4 11,2 2,-1 2,-2 4,-2 0,3 0,3 4,3 1,0 1,0 2,-1l0 -23 -2 0z"/>
   <path class="fil3" d="M486 245c0,-2 0,-2 0,-3l-6 0 0 24c8,0 6,2 6,-12 0,-5 1,-8 5,-8 2,0 3,0 4,2 1,1 1,13 1,15 0,3 -1,3 5,3 0,0 1,0 1,-1l0 -18c0,-1 -2,-3 -3,-4 -3,-3 -8,-2 -11,0 -1,1 -1,1 -2,2z"/>
   <path class="fil1" d="M572 248c0,2 0,3 1,4 2,2 3,3 6,3l7 2c1,1 1,1 1,2 -1,3 -3,3 -6,3 -2,0 -3,-2 -3,-4 -3,0 -5,1 -7,1 0,7 15,10 20,4 2,-2 3,-4 2,-8 -3,-5 -13,-3 -15,-7 1,-3 1,-2 5,-2 1,0 2,0 2,0 1,1 1,1 2,2l5 -1c0,-2 -2,-5 -6,-6 -3,0 -8,0 -11,2 -1,1 -3,3 -3,5z"/>
   <path class="fil0" d="M232 52c0,1 0,1 -1,2 0,0 -1,0 -1,2 0,1 0,1 0,1 -1,1 -1,1 -1,3l2 1c0,0 0,0 0,1 0,-3 0,0 0,-3l1 1c0,-1 0,-1 1,-2l0 1 2 -1c9,-4 15,9 5,13 0,1 0,0 1,1 0,0 1,0 2,1l2 -2c0,2 0,0 -1,2 -1,0 -2,0 -3,0 -2,1 -5,1 -7,0 -1,0 -1,-1 -1,-1 0,-1 -1,-1 -2,-1l-1 1c0,0 0,1 0,1 0,1 0,1 -1,1 0,0 -1,0 0,1 1,0 1,0 1,0 4,3 9,4 13,2 14,-5 11,-26 -4,-26 -2,-1 -6,0 -7,1z"/>
   <path class="fil1" d="M423 266c3,0 6,-1 7,-2 2,-2 4,-4 4,-7 -3,0 -3,0 -6,0 -2,4 -1,4 -6,4 -1,0 -1,-1 -2,-1 -3,-2 -4,-14 3,-14 3,0 4,1 5,4 1,-1 4,-1 6,-1 -1,-11 -23,-12 -23,5 0,3 1,6 3,9 3,2 6,3 9,3z"/>
   <path class="fil4" d="M235 104l0 42c0,2 2,1 6,1l0 -45 -6 0c0,1 0,1 0,2z"/>
   <path class="fil1" d="M372 237l0 5 -3 0 0 5 3 0c0,11 -2,19 6,19 2,0 3,0 5,-1 0,-6 -1,-4 -4,-4 -1,-1 -1,-1 -1,-3l0 -11c5,0 4,1 4,-5l-2 0c-3,0 -2,-1 -2,-9 -1,1 -2,1 -3,2 -2,1 -2,1 -3,2z"/>
   <path class="fil2" d="M445 119c0,-6 1,-4 -5,-4 0,1 0,1 0,2 0,1 0,0 0,1 0,2 0,0 0,1 0,1 0,1 0,2l0 24c0,1 0,1 0,2l5 0c0,-6 0,-17 1,-23 0,0 1,-1 1,-2l1 -1c1,-2 3,-2 6,-1 1,0 0,0 2,0 0,-2 1,-3 1,-5 -1,0 0,0 -1,0 0,0 0,0 0,0 -1,0 -1,0 -1,0 0,0 0,0 0,0 -1,-1 1,-1 -1,-1 -3,0 -6,0 -8,3 0,1 0,2 -1,2z"/>
   <path class="fil1" d="M324 247c0,-1 4,-1 5,0 3,2 3,7 2,10 -2,5 -6,5 -8,3 0,0 0,0 0,0 -1,-1 -2,-3 -2,-4 0,-5 -1,-8 3,-9zm-1 17c0,1 0,1 0,1 2,1 3,2 6,1 4,-1 7,-3 8,-7 0,-1 1,-4 1,-6 0,-2 -1,-4 -1,-6 -1,-2 -2,-2 -3,-4 -2,-1 -4,-2 -6,-2 -1,0 -2,0 -3,0 -1,1 -1,1 -2,1l-3 3 0 -3 -5 0 0 33 5 0 0 -12 2 0c0,0 0,1 0,1 0,0 0,0 0,0l1 0z"/>
   <path class="fil1" d="M534 265c1,1 2,1 3,1l4 0 0 -34 -7 0 0 33z"/>
   <path class="fil5" d="M211 16c6,-3 8,6 3,8 -5,2 -9,-6 -3,-8zm0 -5c-4,1 -8,5 -7,11 1,4 5,8 10,6 5,-1 8,-5 7,-10 -1,-4 -5,-8 -10,-7z"/>
   <path class="fil0" d="M136 252c3,1 22,0 28,0 4,0 6,1 5,-4 -1,-1 -1,-1 -4,-1 -1,0 -3,0 -5,0l-20 0c-4,0 -5,1 -4,5z"/>
   <path class="fil4" d="M463 121l0 21c0,2 0,1 0,3l0 2 5 0 0 -32 -5 0c0,1 0,3 0,5 0,0 0,0 0,1z"/>
   <path class="fil4" d="M394 115l-3 0 0 32c7,0 5,3 5,-16 0,-5 0,-11 0,-16 -2,-1 0,0 -2,0z"/>
   <path class="fil1" d="M439 265c0,2 5,1 6,0l0 -23 -6 0 0 23z"/>
   <path class="fil1" d="M233 59c-1,2 -3,5 -1,9 2,2 4,4 8,3 10,-4 4,-17 -5,-13l-2 1z"/>
   <path class="fil5" d="M229 74c1,0 1,0 1,-1 0,0 0,-1 0,-1l1 -1c1,0 2,0 2,1 0,0 0,1 1,1 2,1 5,1 7,0 1,0 2,0 3,0 1,-2 1,0 1,-2l-2 2c-1,-1 -2,-1 -2,-1 -1,-1 -1,0 -1,-1 -4,1 -6,-1 -8,-3 -2,-4 0,-7 1,-9l0 -1c-1,1 -1,1 -1,2l-1 -1c0,3 0,0 0,3 0,-1 0,-1 0,-1l-2 -1c0,-2 0,-2 1,-3 0,0 0,0 0,-1 0,-2 1,-2 1,-2 1,-1 1,-1 1,-2 -4,2 -7,6 -7,10 -1,3 -1,5 0,7 1,2 2,4 4,5z"/>
   <path class="fil1" d="M272 164l0 11 13 0 0 -10c0,-2 -3,-1 -4,-1 0,0 -6,-1 -9,0z"/>
   <path class="fil5" d="M125 150l4 -7c-3,-3 -4,-4 -8,-10 -3,-6 -4,-8 -5,-11 -3,0 -7,0 -10,0l0 1c3,0 5,-1 7,0 2,0 1,-1 2,0 0,1 0,1 -1,2 -1,1 0,2 0,3 1,1 0,-1 1,1l2 0c1,1 1,3 2,3l1 1c0,0 0,0 0,0 -1,0 -1,0 -1,0 0,2 1,1 1,2l0 3c0,0 -2,-1 0,2 1,1 2,0 2,1 1,-1 2,-1 2,-1 0,1 1,1 0,2 0,2 -1,1 1,1 -1,1 1,0 -1,1 3,0 1,0 1,0 0,0 0,0 0,1 0,0 0,0 0,0l0 0c0,0 -1,0 -1,0 0,0 0,0 0,0 0,0 0,0 1,0 0,1 0,1 0,1 0,1 0,0 0,2 -1,2 -1,0 -1,1 0,2 0,1 1,1z"/>
   <path class="fil6" d="M211 16c-6,2 -2,10 3,8 5,-2 3,-11 -3,-8z"/>
   <path class="fil2" d="M467 103l-4 8 4 0c1,-1 1,-1 2,-2l5 -6c-2,0 -3,0 -4,0 -1,0 -1,0 -2,0 0,0 -1,0 -1,0z"/>
   <path class="fil7" d="M197 154c1,0 0,0 2,-1 0,0 0,0 0,0 2,-1 4,-3 5,-3 0,-1 -1,-2 -1,-3 -1,0 -1,-1 -1,-1l-2 -2c0,3 0,2 1,3 1,2 -1,-1 0,0 0,1 0,1 0,1l-2 0 0 -2c-2,0 0,-1 -1,1l-2 0c1,4 0,2 0,3 0,2 1,0 0,3 0,0 -1,0 -1,0l-1 1c2,0 1,0 3,0z"/>
   <path class="fil1" d="M439 237c0,2 1,1 5,1 2,0 1,-2 1,-6l-6 0 0 5z"/>
   <path class="fil5" d="M171 157c2,0 1,-1 1,0 0,1 1,1 2,1 0,-1 0,0 1,-1 0,0 0,0 0,0 0,2 2,1 2,1 -1,2 0,0 -1,2 -1,2 1,-1 -1,0l3 3c0,-1 0,0 1,-1 0,1 0,1 0,1l1 0c0,1 0,1 0,1 0,0 0,0 0,0 0,1 0,-1 1,0 2,0 2,-1 2,-1 -2,0 -1,0 -2,-2l-4 -6 -6 2z"/>
   <polygon class="fil2" points="391,111 396,111 396,105 391,105 "/>
   <path class="fil8" d="M550 120l-1 0c1,1 0,0 1,0z"/>
   <path class="fil9" d="M538 121c1,0 0,0 1,-1l-1 1z"/>
  </g>
 </g>
</svg>
